<?xml version="1.0" encoding="utf-8"?>
<!-- Generator: Adobe Illustrator 25.4.1, SVG Export Plug-In . SVG Version: 6.00 Build 0)  -->
<svg version="1.1" id="Layer_1" xmlns="http://www.w3.org/2000/svg" xmlns:xlink="http://www.w3.org/1999/xlink" x="0px" y="0px"
	 viewBox="0 0 348 104" style="enable-background:new 0 0 348 104;" xml:space="preserve">
<style type="text/css">
	.st0{fill:#231F20;}
	.st1{fill:#63943F;}
	.st2{fill:none;}
	.st3{fill:#973E31;}
	.st4{fill:#7C7C7C;}
	.st5{fill:none;stroke:#7C7C7C;stroke-width:0.5616;stroke-miterlimit:10;}
	.st6{fill:none;stroke:#7C7C7C;stroke-miterlimit:10;}
</style>
<g>
	<polygon class="st0" points="13.3,19.8 17.2,19.8 17.2,24.7 20.9,24.7 20.9,19.8 24.8,19.8 24.8,33.8 20.9,33.8 20.9,28.3 
		17.2,28.3 17.2,33.8 13.3,33.8 	"/>
	<rect x="26.9" y="19.8" class="st0" width="3.9" height="14"/>
	<path class="st0" d="M32.8,19.8h7.5c0.6,0,1.1,0.1,1.6,0.3c0.5,0.2,0.9,0.4,1.3,0.8c0.4,0.3,0.7,0.7,0.9,1.2
		c0.2,0.5,0.3,1.1,0.3,1.7c0,0.4,0,0.7-0.1,1.1c-0.1,0.4-0.2,0.7-0.3,1c-0.2,0.3-0.4,0.6-0.6,0.8c-0.2,0.2-0.5,0.4-0.9,0.6
		c0.5,0.2,1,0.6,1.3,1.3c0.3,0.6,0.5,1.4,0.6,2.2c0,0.2,0,0.4,0,0.7c0,0.3,0,0.6,0.1,0.9c0,0.3,0.1,0.6,0.1,0.8
		c0,0.3,0.1,0.5,0.2,0.6H41c-0.1-0.4-0.2-0.7-0.2-1.1c0-0.4-0.1-0.7-0.1-1.1c0-0.3-0.1-0.7-0.1-1c0-0.3-0.1-0.6-0.2-0.9
		c-0.1-0.3-0.3-0.5-0.5-0.6C39.6,29,39.3,29,38.9,29h-2.1v4.9h-3.9V19.8z M36.8,26h2.1c0.2,0,0.4,0,0.6,0c0.2,0,0.4-0.1,0.6-0.2
		c0.2-0.1,0.3-0.2,0.4-0.4c0.1-0.2,0.2-0.4,0.2-0.7c0-0.4-0.1-0.8-0.4-1c-0.3-0.2-0.8-0.4-1.5-0.4h-1.8V26z"/>
	<path class="st0" d="M49.7,19.8h3.9l4.7,14h-4.1l-0.5-2h-4.1l-0.6,2h-4L49.7,19.8z M52.8,28.8l-1.1-4.3h0l-1.2,4.3H52.8z"/>
	<polygon class="st0" points="59.1,19.8 63.1,19.8 66.8,27.3 66.9,27.3 66.9,19.8 70.6,19.8 70.6,33.8 66.8,33.8 62.8,26.2 
		62.8,26.2 62.8,33.8 59.1,33.8 	"/>
	<path class="st0" d="M76.2,19.8h3.9l4.7,14h-4.1l-0.5-2H76l-0.6,2h-4L76.2,19.8z M79.3,28.8l-1.1-4.3h0l-1.2,4.3H79.3z"/>
	<polygon class="st0" points="85.6,19.8 89.7,19.8 93.4,27.3 93.4,27.3 93.4,19.8 97.1,19.8 97.1,33.8 93.3,33.8 89.4,26.2 
		89.3,26.2 89.3,33.8 85.6,33.8 	"/>
	<polygon class="st1" points="13.5,43.9 22.1,43.9 22.1,45.6 15.2,45.6 15.2,50.1 21.3,50.1 21.3,51.7 15.2,51.7 15.2,58.3 
		13.5,58.3 	"/>
	<path class="st1" d="M23.7,48.3c0.3-0.9,0.7-1.7,1.2-2.4c0.5-0.7,1.2-1.3,2-1.7c0.8-0.4,1.7-0.6,2.7-0.6c1,0,2,0.2,2.7,0.6
		c0.8,0.4,1.4,1,2,1.7c0.5,0.7,0.9,1.5,1.2,2.4c0.3,0.9,0.4,1.9,0.4,2.8c0,1-0.1,1.9-0.4,2.8c-0.3,0.9-0.7,1.7-1.2,2.4
		c-0.5,0.7-1.2,1.3-2,1.7c-0.8,0.4-1.7,0.6-2.7,0.6c-1,0-2-0.2-2.7-0.6c-0.8-0.4-1.4-1-2-1.7c-0.5-0.7-0.9-1.5-1.2-2.4
		c-0.3-0.9-0.4-1.8-0.4-2.8C23.3,50.2,23.4,49.2,23.7,48.3 M25.3,53.3c0.2,0.7,0.4,1.3,0.8,1.9c0.4,0.6,0.8,1,1.4,1.4
		c0.6,0.3,1.3,0.5,2.1,0.5c0.8,0,1.5-0.2,2.1-0.5c0.6-0.3,1-0.8,1.4-1.4c0.4-0.6,0.6-1.2,0.8-1.9c0.2-0.7,0.3-1.4,0.3-2.1
		c0-0.7-0.1-1.4-0.3-2.1s-0.4-1.3-0.8-1.9c-0.4-0.6-0.8-1-1.4-1.4c-0.6-0.3-1.3-0.5-2.1-0.5c-0.8,0-1.5,0.2-2.1,0.5
		c-0.6,0.3-1,0.8-1.4,1.4c-0.4,0.6-0.6,1.2-0.8,1.9c-0.2,0.7-0.3,1.4-0.3,2.1C25.1,51.9,25.1,52.6,25.3,53.3"/>
	<path class="st1" d="M38,43.9h6.2c1.2,0,2.2,0.3,2.9,1c0.7,0.7,1.1,1.6,1.1,2.7c0,0.9-0.2,1.6-0.5,2.3c-0.4,0.7-0.9,1.1-1.7,1.3v0
		c0.4,0.1,0.7,0.2,0.9,0.4c0.2,0.2,0.4,0.4,0.6,0.7c0.1,0.3,0.3,0.6,0.3,0.9c0.1,0.3,0.1,0.7,0.1,1c0,0.3,0,0.7,0.1,1.1
		c0,0.4,0,0.7,0.1,1.1c0,0.3,0.1,0.7,0.2,1c0.1,0.3,0.2,0.6,0.4,0.8h-2c-0.1-0.2-0.2-0.3-0.2-0.5c0-0.2-0.1-0.4-0.1-0.7
		c0-0.3,0-0.6,0-1c0-0.4,0-0.8-0.1-1.3c0-0.3-0.1-0.7-0.2-1c-0.1-0.3-0.2-0.6-0.3-0.8c-0.2-0.2-0.4-0.4-0.6-0.6
		c-0.3-0.1-0.6-0.2-1-0.2h-4.3v6.1H38V43.9z M43.4,50.6c0.4,0,0.8,0,1.2-0.1c0.4-0.1,0.7-0.2,1-0.4c0.3-0.2,0.5-0.5,0.7-0.8
		c0.2-0.3,0.2-0.8,0.2-1.3c0-0.7-0.2-1.3-0.6-1.8c-0.4-0.5-1-0.7-1.8-0.7h-4.3v5H43.4z"/>
	<polygon class="st1" points="53.3,45.6 48.9,45.6 48.9,43.9 59.4,43.9 59.4,45.6 55.1,45.6 55.1,58.3 53.3,58.3 	"/>
	<path class="st1" d="M71.4,53.1c0,1.8-0.5,3.2-1.4,4.1c-0.9,0.9-2.2,1.4-3.8,1.4c-0.8,0-1.6-0.1-2.3-0.3c-0.7-0.2-1.2-0.6-1.7-1
		c-0.5-0.5-0.8-1-1.1-1.7c-0.2-0.7-0.4-1.5-0.4-2.5v-9.2h1.7v9.2c0,1.3,0.3,2.2,0.9,2.9c0.6,0.7,1.5,1,2.7,1c1.1,0,2-0.3,2.6-1
		c0.6-0.7,0.9-1.6,0.9-2.9v-9.2h1.7V53.1z"/>
	<polygon class="st1" points="74.2,43.9 76,43.9 83,55.6 83,55.6 83,43.9 84.6,43.9 84.6,58.3 82.7,58.3 75.9,46.8 75.8,46.8 
		75.8,58.3 74.2,58.3 	"/>
	<polygon class="st1" points="87.5,43.9 96.6,43.9 96.6,45.6 89.2,45.6 89.2,50.1 96.1,50.1 96.1,51.7 89.2,51.7 89.2,56.7 
		96.6,56.7 96.6,58.3 87.5,58.3 	"/>
	<path class="st3" d="M232.7,16.9c-0.4,0-1.1-0.1-3.3-0.1c-5.7-0.1-11.4,0.1-17.1,0.1l-34.2,0.4v0.1v0l34.2,0.4
		c5.7,0.1,11.4,0.2,17.1,0.1c2.1,0,2.9-0.1,3.3-0.1V16.9z"/>
	<path class="st3" d="M283.7,17.7c0.4,0.1,1.1,0.1,3.3,0.1c5.7,0.1,11.4,0,17.1-0.1l34.2-0.4v0v-0.1l-34.2-0.4
		c-5.7-0.1-11.4-0.2-17.1-0.1c-2.1,0-2.9,0.1-3.3,0.1V17.7z"/>
	<g>
		<path class="st3" d="M330.7,59.8c-2.4,2.2-5.4,3-8.5,3c-3.6,0.1-7-0.7-9.8-3c-8.6-6.9-7.6-23.3,3.5-27.2
			c9.5-3.3,20.3,0.7,21.9,11.4c0.9,4.1,0.2,8.3,0.4,12.5c0.1,1.7,0,3.4,0,5.1c0,0.6-0.2,0.8-0.8,0.8c-2,0-4.1,0-6.1,0
			c-0.4,0-0.6-0.2-0.6-0.6C330.7,61.2,330.7,60.6,330.7,59.8z M322.3,38.3c-6.1-0.4-9.2,5.4-8.1,11c1.2,9.1,15.1,9,16.3,0
			C331.3,43.5,328.8,38.1,322.3,38.3z"/>
		<path class="st3" d="M251.1,50.2c1.2,2.6,3.4,3.7,6.1,3.8c2.8,0,5.6,0,8.5,0c0.8,0,0.9,0.2,0.9,0.9c0,2.2,0,4.4,0,6.6
			c0,0.5-0.1,0.8-0.7,0.7c-3.5,0-6.9,0.1-10.4-0.1c-4.5-0.3-8.8-3.4-11.1-7.2c-1.1-2-1.7-4.2-1.9-6.5c-0.7-7.8,2.6-14,10.2-16.6
			c1.4-0.4,2.8-0.7,4.2-0.7c2.9,0,5.9,0,8.8,0c0.6,0,0.8,0.1,0.8,0.7c0,2.2,0,4.5,0,6.7c0,0.6-0.2,0.8-0.8,0.8c-2.8,0-5.7,0-8.5,0
			c-2,0-3.7,0.7-5.1,2.1c-0.3,0.5-0.9,1.1-0.7,1.7c0.2,0.5,1,0.1,1.5,0.1c4.3,0,8.6,0,12.9,0c0.6,0,0.8,0.3,0.8,0.8
			c0,1.7,0,3.5,0,5.2c0,0.7-0.2,0.8-0.8,0.8c-4.4,0-8.9,0-13.3,0C252,50.1,251.5,50,251.1,50.2z"/>
		<path class="st3" d="M206.2,62.2c-1.1,0-2.2,0-3.3,0c-0.5,0-0.8-0.2-0.9-0.6c-0.5-1.5-1.1-2.9-1.6-4.4c-0.1-0.4-0.3-0.6-0.7-0.6
			c-3.9,0-7.7,0-11.6,0c-0.6,0-0.7,0.5-0.8,0.9c-0.5,1.4-1.1,2.8-1.5,4.2c-0.2,0.5-0.5,0.6-0.9,0.6c-2,0-4.1,0-6.1,0
			c-0.8,0-0.8-0.3-0.6-0.9c3.9-9.9,8.2-19.6,12.1-29.5c0.2-0.4,0.4-0.6,0.8-0.6c2,0,4.1,0,6.1,0c0.4,0,0.6,0.2,0.7,0.5
			c2.8,6.7,5.5,13.5,8.4,20.2c1.3,3.2,2.6,6.4,4,9.5c0.3,0.7,0,0.6-0.4,0.6C208.6,62.2,207.4,62.3,206.2,62.2z M193.9,49.6
			c1.2,0,2.4,0,3.6,0c0.6,0,0.6-0.2,0.5-0.6c-0.2-0.7-0.5-1.3-0.7-2c-1.1-2.5-1.8-5.1-2.9-7.7c-0.1-0.2,0.1-0.5-0.3-0.5
			c-0.3,0-0.3,0.3-0.4,0.5c-0.7,1.5-1,3.1-1.8,4.6c-0.8,1.6-1.3,3.4-2,5c-0.2,0.4-0.1,0.7,0.5,0.7C191.6,49.6,192.8,49.6,193.9,49.6
			z"/>
		<path class="st3" d="M222.2,51.5c0,4,0,7,0,10c0,0.7-0.2,0.9-0.9,0.9c-1.8,0-3.7-0.1-5.5,0c-0.6,0-0.9-0.2-0.9-0.8
			c0-5.9,0-11.8,0-17.7c0.3-10.7,12.6-15,21.2-10.5c1.3,0.6,2.4,1.6,3.3,2.7c0.3,0.3,0.3,0.5,0,0.8c-1.3,1.4-2.5,2.8-3.8,4.1
			c-0.5,0.5-1.1,0.4-1.5-0.2c-2.2-3.1-7.8-3.1-10.2-0.8c-1,0.9-1.6,2.1-1.7,3.4C222.1,46.4,222.3,49.5,222.2,51.5z"/>
		<g>
			<path class="st3" d="M294.2,62.3h-0.5V44c0-1.8-0.7-3.5-2-4.8c-1.3-1.3-3-2-4.8-2c-3.7,0-6.8,3-6.8,6.8v18.2h-0.5V44
				c0-4,3.3-7.3,7.3-7.3c1.9,0,3.8,0.8,5.2,2.1c1.4,1.4,2.1,3.2,2.1,5.2V62.3z"/>
		</g>
		<g>
			<path class="st3" d="M295.5,62.3H295V44.1c0-2.1-0.8-4.2-2.4-5.7c-1.5-1.5-3.5-2.4-5.7-2.4c-4.4,0-8,3.6-8,8v18.2h-0.5V44.1
				c0-4.7,3.8-8.5,8.5-8.5c2.3,0,4.4,0.9,6,2.5c1.6,1.6,2.5,3.8,2.5,6V62.3z"/>
		</g>
		<g>
			<path class="st3" d="M296.8,62.3h-0.5V44.2c0-2.5-1-4.8-2.7-6.6c-1.8-1.8-4.1-2.7-6.6-2.7c-5.1,0-9.3,4.2-9.3,9.3v18.1h-0.5V44.2
				c0-5.4,4.4-9.8,9.8-9.8c2.6,0,5.1,1,6.9,2.9c1.9,1.9,2.9,4.3,2.9,6.9V62.3z"/>
		</g>
		<g>
			<path class="st3" d="M298,62.3h-0.5V44.2c0-2.8-1.1-5.5-3.1-7.5c-2-2-4.7-3.1-7.5-3.1c-5.8,0-10.6,4.7-10.6,10.6v18.1h-0.5V44.2
				c0-6.1,5-11.1,11.1-11.1c3,0,5.7,1.2,7.8,3.2c2.1,2.1,3.2,4.9,3.2,7.8V62.3z"/>
		</g>
		<g>
			<path class="st3" d="M299.2,62.3h-0.5V44.2c0-3.1-1.2-6.1-3.4-8.3c-2.2-2.2-5.2-3.4-8.3-3.4c-6.5,0-11.7,5.3-11.7,11.7v18.1h-0.5
				V44.2c0-6.7,5.5-12.2,12.2-12.2c3.3,0,6.3,1.3,8.6,3.6c2.3,2.3,3.6,5.4,3.6,8.6V62.3z"/>
		</g>
		<g>
			<path class="st3" d="M300.2,62.3h-0.5V44c0-3.4-1.3-6.6-3.7-9c-2.4-2.4-5.6-3.7-9-3.7c-7,0-12.8,5.7-12.8,12.8v18.2h-0.5V44
				c0-7.3,5.9-13.3,13.3-13.3c3.5,0,6.9,1.4,9.4,3.9c2.5,2.5,3.9,5.8,3.9,9.4V62.3z"/>
		</g>
	</g>
	<path class="st0" d="M99.2,19.8h6.5c1.1,0,2,0.2,2.7,0.6c0.7,0.4,1.3,0.9,1.8,1.6c0.5,0.6,0.8,1.4,1,2.2c0.2,0.8,0.3,1.7,0.3,2.6
		c0,1.1-0.1,2-0.4,2.9s-0.7,1.6-1.2,2.2c-0.5,0.6-1.2,1.1-2,1.4c-0.8,0.3-1.8,0.5-2.9,0.5h-5.7V19.8z M103.1,30.3h1.5
		c0.6,0,1.1-0.1,1.5-0.4c0.4-0.2,0.7-0.5,0.9-0.9c0.2-0.4,0.3-0.7,0.4-1.1c0.1-0.4,0.1-0.8,0.1-1.1c0-0.2,0-0.5-0.1-0.9
		c-0.1-0.4-0.2-0.7-0.4-1.1c-0.2-0.4-0.5-0.7-0.9-0.9c-0.4-0.3-1-0.4-1.7-0.4h-1.3V30.3z"/>
	<path class="st0" d="M116.7,19.8h3.9l4.7,14h-4.1l-0.5-2h-4.1l-0.6,2h-4L116.7,19.8z M119.8,28.8l-1.1-4.3h0l-1.2,4.3H119.8z"/>
	<polygon class="st0" points="126.1,19.8 130.1,19.8 133.9,27.3 133.9,27.3 133.9,19.8 137.6,19.8 137.6,33.8 133.8,33.8 
		129.9,26.2 129.8,26.2 129.8,33.8 126.1,33.8 	"/>
	<rect x="139.7" y="19.8" class="st0" width="3.9" height="14"/>
	<path class="st1" d="M113.1,48.3c-0.1-0.5-0.3-1-0.5-1.3s-0.5-0.7-0.8-1c-0.3-0.3-0.7-0.4-1.1-0.6c-0.4-0.1-0.8-0.2-1.3-0.2
		c-0.8,0-1.5,0.2-2,0.5c-0.6,0.3-1,0.8-1.4,1.3c-0.4,0.5-0.6,1.2-0.8,1.9c-0.2,0.7-0.3,1.4-0.3,2.2c0,0.8,0.1,1.6,0.3,2.3
		c0.2,0.7,0.4,1.4,0.8,1.9c0.4,0.5,0.8,1,1.4,1.3c0.6,0.3,1.2,0.5,2,0.5c0.6,0,1.1-0.1,1.5-0.3c0.4-0.2,0.8-0.5,1.2-0.9
		c0.3-0.4,0.6-0.8,0.8-1.3c0.2-0.5,0.3-1.1,0.3-1.7h1.7c-0.2,1.8-0.7,3.2-1.7,4.2c-1,1-2.3,1.5-4,1.5c-1,0-1.9-0.2-2.7-0.6
		c-0.8-0.4-1.4-0.9-1.9-1.6c-0.5-0.7-0.9-1.5-1.1-2.4c-0.3-0.9-0.4-1.9-0.4-2.9c0-1,0.1-2,0.4-3c0.3-0.9,0.7-1.7,1.2-2.4
		c0.5-0.7,1.2-1.2,1.9-1.6c0.8-0.4,1.7-0.6,2.7-0.6c0.7,0,1.3,0.1,2,0.3c0.6,0.2,1.2,0.5,1.6,0.9c0.5,0.4,0.9,0.9,1.2,1.5
		c0.3,0.6,0.5,1.3,0.6,2H113.1z"/>
	<rect x="117.2" y="43.9" class="st1" width="1.7" height="14.4"/>
	<polygon class="st1" points="124.9,45.6 120.5,45.6 120.5,43.9 131,43.9 131,45.6 126.7,45.6 126.7,58.3 124.9,58.3 	"/>
	<polygon class="st1" points="138.3,52.4 138.3,58.3 136.5,58.3 136.5,52.4 131.4,43.9 133.5,43.9 137.5,50.8 141.3,43.9 
		143.3,43.9 	"/>
	<g>
		<polygon class="st4" points="338.2,72.9 13.6,72.9 13.6,72.4 14.1,72.4 338.8,72.4 338.8,72.8 		"/>
	</g>
	<line class="st5" x1="162.4" y1="14.2" x2="162.4" y2="63.5"/>
	<g>
		<path class="st3" d="M244,23.7V12.9h-4.2v-2h10.9v2h-4.2v10.8H244z"/>
		<path class="st3" d="M254.8,23.7h-2.4V10.9h2.4V23.7z M261.6,18.2h-7v-2h7V18.2z M261.5,10.9h2.4v12.8h-2.4V10.9z"/>
		<path class="st3" d="M269.7,21.7h7.2v2h-9.6V10.9h9.4v2h-7V21.7z M269.5,16.2h6.4v2h-6.4V16.2z"/>
	</g>
	<g>
		<path d="M127.7,86.6c0,3-2.3,4.6-5.8,4.6h-4.6v3.9h-2.5v-13h7.1C125.7,82.1,127.7,83.9,127.7,86.6z M125.2,86.6
			c0-1.5-1.3-2.2-3.4-2.2h-4.5v4.3h4.5C124.1,88.8,125.2,88,125.2,86.6z"/>
		<path d="M143.4,92.5h-8.1l-1.3,2.6h-2.7l6.9-13h2.5l6.9,13h-2.7L143.4,92.5z M142.1,90.1l-2.8-5.5l-2.8,5.5H142.1z"/>
		<path d="M167.3,82.1v13h-2.9l-8.1-9.4v9.4h-2.5v-13h2.9l8.1,9.4v-9.4H167.3z"/>
		<path d="M189.5,82.1l-6.8,13h-2.4l-6.8-13h2.7l5.3,10.3l5.3-10.3H189.5z"/>
		<path d="M198.3,84.5v2.7h7.8v2.4h-7.8v3h8.5v2.4h-11v-13h11v2.4H198.3z"/>
		<path d="M224.3,92.8v2.3h-10.7v-13h2.5v10.7H224.3z"/>
	</g>
</g>
</svg>
